{"title":"EDGE OF TOMORROW (2014)[1080p WEB DL] GREEK SUBS","uid":11011521,"size":3768985346,"categoryP":"video","categoryS":"hd___movies","magnet":"?xt=urn:btih:e4cb6f1e38165f316b5492ee903228669ee0d438&amp;dn=EDGE+OF+TOMORROW+%282014%29%5B1080p+WEB+DL%5D+GREEK+SUBS&amp;tr=udp%3A%2F%2Ftracker.openbittorrent.com%3A80&amp;tr=udp%3A%2F%2Fopen.demonii.com%3A1337&amp;tr=udp%3A%2F%2Ftracker.coppersurfer.tk%3A6969&amp;tr=udp%3A%2F%2Fexodus.desync.com%3A6969","seeders":2,"leechers":0,"uploader":"holyANT","files":-1,"time":1410367048,"description":" &lt;a href=&quot;http://image.bayimg.com/b0ae6e7f139d02ccc733664b87912cf5abd1dc33.jpg&quot; rel=&quot;nofollow&quot; target=&quot;_NEW&quot;&gt;http://image.bayimg.com/b0ae6e7f139d02ccc733664b87912cf5abd1dc33.jpg&lt;/a&gt;\n\nGeneral\nUnique ID : 212943326388467989324678546469233879906 (0xA0336493730440FA9BFD7C67EBF7EB62)\nComplete name : EDGE OF TOMORROW (2014) 1080p WEB-DL x264 AC3-EVO/EDGE OF TOMORROW (2014) 1080p WEB-DL x264 AC3-EVO.mkv\nFormat : Matroska\nFormat version : Version 4 / Version 2\nFile size : 3.51 GiB\nDuration : 1h 53mn\nOverall bit rate : 4 429 Kbps\nMovie name : EDGE\nEncoded date : UTC 2014-09-09 08:17:57\nWriting application : mkvmerge v6.7.0 ('Back to the Ground') 64bit built on Jan 8 2014 15:10:52\nWriting library : libebml v1.3.0 + libmatroska v1.4.1\n\nVideo\nID : 1\nFormat : AVC\nFormat/Info : Advanced Video Codec\nFormat profile : &lt;a class=&quot;__cf_email__&quot; href=&quot;/cdn-cgi/l/email-protection&quot; data-cfemail=&quot;f7bf9e909fb7bbc3d9c7&quot;&gt;[email&amp;#160;protected]&lt;/a&gt;&lt;script cf-hash='f9e31' type=&quot;text/javascript&quot;&gt;\n/* &lt;![CDATA[ */!function(){try{var t=&quot;currentScript&quot;in document?document.currentScript:function(){for(var t=document.getElementsByTagName(&quot;script&quot;),e=t.length;e--;)if(t[e].getAttribute(&quot;cf-hash&quot;))return t[e]}();if(t&amp;&amp;t.previousSibling){var e,r,n,i,c=t.previousSibling,a=c.getAttribute(&quot;data-cfemail&quot;);if(a){for(e=&quot;&quot;,r=parseInt(a.substr(0,2),16),n=2;a.length-n;n+=2)i=parseInt(a.substr(n,2),16)^r,e+=String.fromCharCode(i);e=document.createTextNode(e),c.parentNode.replaceChild(e,c)}}}catch(u){}}();/* ]]&gt; */&lt;/script&gt;\nFormat settings, CABAC : Yes\nFormat settings, ReFrames : 5 frames\nCodec ID : V_MPEG4/ISO/AVC\nDuration : 1h 53mn\nBit rate : 3 957 Kbps\nWidth : 1 916 pixels\nHeight : 796 pixels\nDisplay aspect ratio : 2.40:1\nFrame rate : 23.976 fps\nColor space : YUV\nChroma subsampling : 4:2:0\nBit depth : 8 bits\nScan type : Progressive\nBits/(Pixel*Frame) : 0.108\nStream size : 3.14 GiB (89%)\nTitle : EDGE OF TOMORROW\nLanguage : English\nDefault : Yes\nForced : Yes\nColor primaries : BT.709-5, BT.1361, IEC 61966-2-4, SMPTE RP177\nTransfer characteristics : BT.709-5, BT.1361\nMatrix coefficients : BT.709-5, BT.1361, IEC 61966-2-4 709, SMPTE RP177\n\nAudio\nID : 2\nFormat : AC-3\nFormat/Info : Audio Coding 3\nMode extension : CM (complete main)\nCodec ID : A_AC3\nDuration : 1h 53mn\nBit rate mode : Constant\nBit rate : 384 Kbps\nChannel(s) : 6 channels\nChannel positions : Front: L C R, Side: L R, LFE\nSampling rate : 48.0 KHz\nBit depth : 16 bits\nCompression mode : Lossy\nStream size : 312 MiB (9%)\nTitle : 384\nLanguage : English\nDefault : Yes\nForced : No\n\n","torrent":{"xt":"urn:btih:e4cb6f1e38165f316b5492ee903228669ee0d438","amp;dn":"EDGE+OF+TOMORROW+%282014%29%5B1080p+WEB+DL%5D+GREEK+SUBS","amp;tr":["udp%3A%2F%2Ftracker.openbittorrent.com%3A80","udp%3A%2F%2Fopen.demonii.com%3A1337","udp%3A%2F%2Ftracker.coppersurfer.tk%3A6969","udp%3A%2F%2Fexodus.desync.com%3A6969"],"infoHash":"e4cb6f1e38165f316b5492ee903228669ee0d438","infoHashBuffer":{"type":"Buffer","data":[228,203,111,30,56,22,95,49,107,84,146,238,144,50,40,102,158,224,212,56]},"announce":[],"urlList":[]}}